<svg xmlns="http://www.w3.org/2000/svg" version="1.1" xmlns:xlink="http://www.w3.org/1999/xlink" xmlns:svgjs="http://svgjs.dev/svgjs" width="1500" height="1500" viewBox="0 0 1500 1500"><rect width="1500" height="1500" fill="#001f3f"></rect><g transform="matrix(0.6666666666666666,0,0,0.6666666666666666,249.39393939393938,449.75128515443475)"><svg viewBox="0 0 396 247" data-background-color="#001f3f" preserveAspectRatio="xMidYMid meet" height="935" width="1500" xmlns="http://www.w3.org/2000/svg" xmlns:xlink="http://www.w3.org/1999/xlink"><g id="tight-bounds" transform="matrix(1,0,0,1,0.2400000000000091,-0.09999999999999432)"><svg viewBox="0 0 395.52 247.2" height="247.2" width="395.52"><rect width="395.52" height="247.2" fill="url(#51ca983f-8d12-4f4f-a3ed-277eb9f8cec3)" mask="url(#7deb7e57-2dcc-4fa0-9fda-56fe2bc59fa3)" data-fill-palette-color="tertiary"></rect><g><svg></svg></g><g><svg viewBox="0 0 395.52 247.2" height="247.2" width="395.52"><g transform="matrix(1,0,0,1,78.15466890756302,47.215199999999996)"><svg viewBox="0 0 239.21066218487394 152.7696" height="152.7696" width="239.21066218487394"><g><svg viewBox="0 0 239.21066218487394 152.7696" height="152.7696" width="239.21066218487394"><g><svg viewBox="0 0 239.21066218487394 152.7696" height="152.7696" width="239.21066218487394"><g><svg viewBox="0 0 239.21066218487394 152.7696" height="152.7696" width="239.21066218487394"><g id="textblocktransform"><svg viewBox="0 0 239.21066218487394 152.7696" height="152.7696" width="239.21066218487394" id="textblock"><g><svg viewBox="0 0 239.21066218487394 152.7696" height="152.7696" width="239.21066218487394"><g transform="matrix(1,0,0,1,0,0)"><svg width="239.21066218487394" viewBox="2.75 -35.1 55.9 35.7" height="152.7696" data-palette-color="url(#d4b29a72-c6f1-4fbc-9bc9-97e0d34842be)"></svg></g></svg></g></svg></g></svg></g><g></g></svg></g></svg></g></svg></g><g><path d="M157.012 11.15A119.605 119.605 0 0 1 238.508 11.15L224.731 11.15A105.828 105.828 0 0 0 170.789 11.15L157.012 11.15M157.012 236.05A119.605 119.605 0 0 0 238.508 236.05L224.731 236.05A105.828 105.828 0 0 1 170.789 236.05L157.012 236.05" fill="url(#51ca983f-8d12-4f4f-a3ed-277eb9f8cec3)" stroke="transparent" data-fill-palette-color="tertiary"></path></g></svg></g><defs></defs><mask id="67802f32-2935-47bc-8a51-37c5e57f8b33"><g id="SvgjsG1003"><svg viewBox="0 0 395.52 247.2" height="247.2" width="395.52"><g><svg></svg></g><g><svg viewBox="0 0 395.52 247.2" height="247.2" width="395.52"><g transform="matrix(1,0,0,1,78.15466890756302,47.215199999999996)"><svg viewBox="0 0 239.21066218487394 152.7696" height="152.7696" width="239.21066218487394"><g><svg viewBox="0 0 239.21066218487394 152.7696" height="152.7696" width="239.21066218487394"><g><svg viewBox="0 0 239.21066218487394 152.7696" height="152.7696" width="239.21066218487394"><g><svg viewBox="0 0 239.21066218487394 152.7696" height="152.7696" width="239.21066218487394"><g id="SvgjsG1002"><svg viewBox="0 0 239.21066218487394 152.7696" height="152.7696" width="239.21066218487394" id="SvgjsSvg1001"><g><svg viewBox="0 0 239.21066218487394 152.7696" height="152.7696" width="239.21066218487394"><g transform="matrix(1,0,0,1,0,0)"><svg width="239.21066218487394" viewBox="2.75 -35.1 55.9 35.7" height="152.7696" data-palette-color="url(#d4b29a72-c6f1-4fbc-9bc9-97e0d34842be)"><path d="M13.95-35.1L13.95-35.1Q16.4-35.05 19-34.85 21.6-34.65 24.2-34.1L24.2-34.1 23.9-30.9Q21.75-31 19.15-31.08 16.55-31.15 14.15-31.15L14.15-31.15Q12.3-31.15 10.98-31.03 9.65-30.9 8.8-30.43 7.95-29.95 7.58-28.88 7.2-27.8 7.2-25.9L7.2-25.9Q7.2-23.05 8.22-21.93 9.25-20.8 11.55-20.25L11.55-20.25 18.55-18.5Q22.55-17.55 24.03-15.18 25.5-12.8 25.5-8.8L25.5-8.8Q25.5-5.8 24.83-3.95 24.15-2.1 22.75-1.13 21.35-0.15 19.15 0.23 16.95 0.6 13.95 0.6L13.95 0.6Q12.25 0.6 9.53 0.45 6.8 0.3 3.25-0.35L3.25-0.35 3.55-3.6Q6.5-3.5 8.3-3.43 10.1-3.35 11.4-3.35 12.7-3.35 14.1-3.35L14.1-3.35Q16.75-3.35 18.28-3.75 19.8-4.15 20.43-5.35 21.05-6.55 21.05-8.9L21.05-8.9Q21.05-10.9 20.6-12 20.15-13.1 19.18-13.68 18.2-14.25 16.7-14.6L16.7-14.6 9.55-16.4Q5.8-17.35 4.28-19.7 2.75-22.05 2.75-26L2.75-26Q2.75-29 3.43-30.83 4.1-32.65 5.48-33.58 6.85-34.5 8.95-34.8 11.05-35.1 13.95-35.1ZM41.3-34.5L45.9-34.5Q46.5-34.5 46.95-34.18 47.4-33.85 47.55-33.3L47.55-33.3 58.65 0 54.1 0 45.15-28.3Q44.95-29 44.72-29.73 44.5-30.45 44.3-31.1L44.3-31.1 42.9-31.1Q42.7-30.45 42.5-29.73 42.3-29 42.05-28.3L42.05-28.3 33.1 0 28.55 0 39.65-33.3Q39.8-33.85 40.25-34.18 40.7-34.5 41.3-34.5L41.3-34.5ZM34.8-14.6L52.3-14.6 52.3-10.8 34.8-10.8 34.8-14.6Z" opacity="1" transform="matrix(1,0,0,1,0,0)" fill="white" class="wordmark-text-0" id="SvgjsPath1000"></path></svg></g></svg></g></svg></g></svg></g><g></g></svg></g></svg></g></svg></g><g><path d="M157.012 11.15A119.605 119.605 0 0 1 238.508 11.15L224.731 11.15A105.828 105.828 0 0 0 170.789 11.15L157.012 11.15M157.012 236.05A119.605 119.605 0 0 0 238.508 236.05L224.731 236.05A105.828 105.828 0 0 1 170.789 236.05L157.012 236.05" fill="black" stroke="transparent"></path></g></svg></g><defs><mask></mask></defs></svg><rect width="395.52" height="247.2" fill="black" stroke="none" visibility="hidden"></rect></g></mask><linearGradient x1="0.054" x2="0.941" y1="0.5" y2="0.5" id="d4b29a72-c6f1-4fbc-9bc9-97e0d34842be"><stop stop-color="#9c7945" offset="0"></stop><stop stop-color="#faf3aa" offset="0.498"></stop><stop stop-color="#9c7945" offset="1"></stop></linearGradient><rect width="395.52" height="247.2" fill="url(#d4b29a72-c6f1-4fbc-9bc9-97e0d34842be)" mask="url(#67802f32-2935-47bc-8a51-37c5e57f8b33)" data-fill-palette-color="primary"></rect><mask id="7deb7e57-2dcc-4fa0-9fda-56fe2bc59fa3"><g id="SvgjsG1010"><svg viewBox="0 0 395.52 247.2" height="247.2" width="395.52"><g><svg></svg></g><g><svg viewBox="0 0 395.52 247.2" height="247.2" width="395.52"><g transform="matrix(1,0,0,1,78.15466890756302,47.215199999999996)"><svg viewBox="0 0 239.21066218487394 152.7696" height="152.7696" width="239.21066218487394"><g><svg viewBox="0 0 239.21066218487394 152.7696" height="152.7696" width="239.21066218487394"><g><svg viewBox="0 0 239.21066218487394 152.7696" height="152.7696" width="239.21066218487394"><g><svg viewBox="0 0 239.21066218487394 152.7696" height="152.7696" width="239.21066218487394"><g id="SvgjsG1009"><svg viewBox="0 0 239.21066218487394 152.7696" height="152.7696" width="239.21066218487394" id="SvgjsSvg1008"><g><svg viewBox="0 0 239.21066218487394 152.7696" height="152.7696" width="239.21066218487394"><g transform="matrix(1,0,0,1,0,0)"><svg width="239.21066218487394" viewBox="2.75 -35.1 55.9 35.7" height="152.7696" data-palette-color="url(#d4b29a72-c6f1-4fbc-9bc9-97e0d34842be)"></svg></g></svg></g></svg></g></svg></g><g></g></svg></g></svg></g></svg></g><g><path d="M157.012 11.15A119.605 119.605 0 0 1 238.508 11.15L224.731 11.15A105.828 105.828 0 0 0 170.789 11.15L157.012 11.15M157.012 236.05A119.605 119.605 0 0 0 238.508 236.05L224.731 236.05A105.828 105.828 0 0 1 170.789 236.05L157.012 236.05" fill="white" stroke="transparent"></path></g></svg></g><defs><mask></mask></defs><mask><g id="SvgjsG1007"><svg viewBox="0 0 395.52 247.2" height="247.2" width="395.52"><g><svg></svg></g><g><svg viewBox="0 0 395.52 247.2" height="247.2" width="395.52"><g transform="matrix(1,0,0,1,78.15466890756302,47.215199999999996)"><svg viewBox="0 0 239.21066218487394 152.7696" height="152.7696" width="239.21066218487394"><g><svg viewBox="0 0 239.21066218487394 152.7696" height="152.7696" width="239.21066218487394"><g><svg viewBox="0 0 239.21066218487394 152.7696" height="152.7696" width="239.21066218487394"><g><svg viewBox="0 0 239.21066218487394 152.7696" height="152.7696" width="239.21066218487394"><g id="SvgjsG1006"><svg viewBox="0 0 239.21066218487394 152.7696" height="152.7696" width="239.21066218487394" id="SvgjsSvg1005"><g><svg viewBox="0 0 239.21066218487394 152.7696" height="152.7696" width="239.21066218487394"><g transform="matrix(1,0,0,1,0,0)"><svg width="239.21066218487394" viewBox="2.75 -35.1 55.9 35.7" height="152.7696" data-palette-color="url(#d4b29a72-c6f1-4fbc-9bc9-97e0d34842be)"><path d="M13.95-35.1L13.95-35.1Q16.4-35.05 19-34.85 21.6-34.65 24.2-34.1L24.2-34.1 23.9-30.9Q21.75-31 19.15-31.08 16.55-31.15 14.15-31.15L14.15-31.15Q12.3-31.15 10.98-31.03 9.65-30.9 8.8-30.43 7.95-29.95 7.58-28.88 7.2-27.8 7.2-25.9L7.2-25.9Q7.2-23.05 8.22-21.93 9.25-20.8 11.55-20.25L11.55-20.25 18.55-18.5Q22.55-17.55 24.03-15.18 25.5-12.8 25.5-8.8L25.5-8.8Q25.5-5.8 24.83-3.95 24.15-2.1 22.75-1.13 21.35-0.15 19.15 0.23 16.95 0.6 13.95 0.6L13.95 0.6Q12.25 0.6 9.53 0.45 6.8 0.3 3.25-0.35L3.25-0.35 3.55-3.6Q6.5-3.5 8.3-3.43 10.1-3.35 11.4-3.35 12.7-3.35 14.1-3.35L14.1-3.35Q16.75-3.35 18.28-3.75 19.8-4.15 20.43-5.35 21.05-6.55 21.05-8.9L21.05-8.9Q21.05-10.9 20.6-12 20.15-13.1 19.18-13.68 18.2-14.25 16.7-14.6L16.7-14.6 9.55-16.4Q5.8-17.35 4.28-19.7 2.75-22.05 2.75-26L2.75-26Q2.75-29 3.43-30.83 4.1-32.65 5.48-33.58 6.85-34.5 8.95-34.8 11.05-35.1 13.95-35.1ZM41.3-34.5L45.9-34.5Q46.5-34.5 46.95-34.18 47.4-33.85 47.55-33.3L47.55-33.3 58.65 0 54.1 0 45.15-28.3Q44.95-29 44.72-29.73 44.5-30.45 44.3-31.1L44.3-31.1 42.9-31.1Q42.7-30.45 42.5-29.73 42.3-29 42.05-28.3L42.05-28.3 33.1 0 28.55 0 39.65-33.3Q39.8-33.85 40.25-34.18 40.7-34.5 41.3-34.5L41.3-34.5ZM34.8-14.6L52.3-14.6 52.3-10.8 34.8-10.8 34.8-14.6Z" opacity="1" transform="matrix(1,0,0,1,0,0)" fill="black" class="wordmark-text-0" id="SvgjsPath1004"></path></svg></g></svg></g></svg></g></svg></g><g></g></svg></g></svg></g></svg></g><g><path d="M157.012 11.15A119.605 119.605 0 0 1 238.508 11.15L224.731 11.15A105.828 105.828 0 0 0 170.789 11.15L157.012 11.15M157.012 236.05A119.605 119.605 0 0 0 238.508 236.05L224.731 236.05A105.828 105.828 0 0 1 170.789 236.05L157.012 236.05" fill="black" stroke="transparent"></path></g></svg></g><defs><mask></mask></defs></svg><rect width="395.52" height="247.2" fill="black" stroke="none" visibility="hidden"></rect></g></mask></svg><rect width="395.52" height="247.2" fill="black" stroke="none" visibility="hidden"></rect></g></mask><linearGradient x1="0.054" x2="0.941" y1="0.5" y2="0.5" id="51ca983f-8d12-4f4f-a3ed-277eb9f8cec3"><stop stop-color="#8c8c8c" offset="0"></stop><stop stop-color="#e3e4e5" offset="0.498"></stop><stop stop-color="#8c8c8c" offset="1"></stop></linearGradient></svg><rect width="395.52" height="247.2" fill="none" stroke="none" visibility="hidden"></rect></g></svg></g></svg>